# xmcd
# Track frame offsets:
# 150
# 19785
# 33763
# 54680
# 71037
# 95282
# 113620
# 133381
# 150519
# 165690
# 183975
# 200144
# 219889
# 237618
# 253475
# 270532
# 286736
# 300303
# 322968
# 339619
#
# Disc length: 4729 seconds
# Revision: 0
# Processed by: cddbd v1.5.2PL0 Copyright (c) Steve Scherf et al.
# Submitted via: VisiTrax 2.11.3.279 - For more info visit www.synapsa.com
#
DISCID=21127714
DTITLE=Various (1960's-2010's) Pop and Prog Pop and Synth Pop and Rock and Glam Roc
DTITLE=k and Prog Rock and New Wave and Blues and Soul and Jazz and Disco and New Romantic
DTITLE=s and Rap and HipHop Artists - 100 Hits: Great British Songs: 100 Tracks F
DTITLE=rom Classic British Artists - CD12 of 5: *ReMastered Tracks
DYEAR=1968
DGENRE=Pop
TTITLE0=Bonnie Tyler - Holding Out For A Hero*
TTITLE1=Dead Or Alive - That's The Way (I Like It)*
TTITLE2=Dee C. Lee - See The Day*
TTITLE3=Fairground Attraction - Perfect*
TTITLE4=Paul Young - Everytime You Go Away*
TTITLE5=Nick Heyward - Blue Hat For A Blue Day*
TTITLE6=Spandau Ballet - Fight For Ourselves*
TTITLE7=Altered Images - Don't Talk To Me About Love*
TTITLE8=King - Love And Pride*
TTITLE9=Five Star - System Addict*
TTITLE10=Bros - I Owe You Nothing*
TTITLE11=Lisa Stansfield - All Around The World*
TTITLE12=Heather Small - Proud*
TTITLE13=Will Young - Light My Fire*
TTITLE14=Steps - Better Best Forgotten*
TTITLE15=PJ and Duncan aka Ant and Dec - Let's Get Ready To Rhumble*
TTITLE16=Five - If Ya Gettin' Down*
TTITLE17=Republica - Ready To Go*
TTITLE18=Sleeper - What Do I Do Now*
TTITLE19=Zutons The - Why Won't You Give Me Your Love*
EXTD=Compilation and ReMastering: Demon Music Group/Sony Music:  2017
EXTT0=
EXTT1=
EXTT2=
EXTT3=
EXTT4=
EXTT5=
EXTT6=
EXTT7=
EXTT8=
EXTT9=
EXTT10=
EXTT11=
EXTT12=
EXTT13=
EXTT14=
EXTT15=
EXTT16=
EXTT17=
EXTT18=
EXTT19=
PLAYORDER=
